<svg xmlns="http://www.w3.org/2000/svg" viewBox="0 0 608.01 347"><title>HOME-hero-text-bg</title><g id="Layer_2" data-name="Layer 2"><g id="ARTWORK_V1_copy" data-name="ARTWORK V1 copy"><path d="M602.07,313c-4.27,9.85-6.59,22.82-28.63,28.06C556,345.19,451,342.4,429,343.6c-30.67,1.67-47.7-.79-78.49.2-90.88,2.92-184,3.34-276.91,3.16q-36.86-.08-73.59-.23V3.32l1.62,0q35.85.57,72,1c78.49,1,157.79,1.51,237.16,1.51,66.16,0,240.3-17.31,277.92,7.52,16,10.57,10.79,33.45,10.82,45.36,0,16.73,3,58.62,2.5,76.47-1.15,41,1.16,52.57,1.4,87.41C603.58,252.16,614.5,284.22,602.07,313Z"/></g></g></svg>